<?xml version="1.0" standalone="no"?>
<!DOCTYPE svg PUBLIC "-//W3C//DTD SVG 20010904//EN"
 "http://www.w3.org/TR/2001/REC-SVG-20010904/DTD/svg10.dtd">
<svg version="1.0" xmlns="http://www.w3.org/2000/svg"
 width="500.000000pt" height="500.000000pt" viewBox="0 0 500.000000 500.000000"
 preserveAspectRatio="xMidYMid meet">
<metadata>
Created by potrace 1.14, written by Peter Selinger 2001-2017
</metadata>
<g transform="translate(0.000000,500.000000) scale(0.100000,-0.100000)"
fill="#000000" stroke="none">
<path d="M2396 4963 c-1 -1 -29 -5 -62 -7 -74 -7 -161 -16 -194 -22 -67 -11
-87 -15 -115 -19 -16 -2 -59 -12 -95 -20 -36 -9 -72 -18 -80 -20 -8 -1 -71
-22 -140 -45 -469 -158 -920 -487 -1195 -874 -11 -16 -30 -41 -42 -56 -13 -15
-23 -31 -23 -34 0 -3 -14 -25 -30 -48 -17 -22 -30 -47 -30 -55 0 -7 -4 -13 -8
-13 -5 0 -17 -18 -27 -40 -10 -22 -21 -40 -25 -40 -4 0 -13 -18 -20 -40 -7
-22 -17 -40 -22 -40 -4 0 -8 -4 -8 -9 0 -5 -7 -25 -15 -45 -8 -20 -15 -38 -15
-41 1 -3 -6 -18 -14 -33 -27 -49 -83 -200 -101 -272 -2 -8 -11 -38 -19 -67 -7
-28 -11 -54 -8 -57 3 -3 0 -6 -7 -6 -7 0 -10 -4 -7 -9 4 -5 2 -20 -3 -33 -5
-12 -11 -41 -15 -63 -3 -22 -8 -51 -10 -64 -5 -23 -12 -78 -22 -176 -7 -69 -7
-368 0 -435 5 -46 16 -121 31 -215 2 -11 6 -31 9 -45 3 -14 8 -36 11 -50 2
-14 14 -59 25 -100 12 -41 23 -82 25 -90 2 -8 4 -16 5 -17 2 -2 3 -6 4 -10 1
-5 10 -33 21 -63 11 -30 20 -57 20 -60 1 -3 9 -22 18 -42 10 -21 17 -40 17
-43 0 -9 102 -213 135 -270 149 -257 379 -523 620 -715 51 -41 242 -170 251
-170 4 0 15 -6 23 -14 15 -13 198 -107 271 -139 49 -21 233 -89 255 -93 6 -1
53 -14 106 -28 53 -14 114 -28 135 -31 22 -3 48 -7 59 -9 11 -2 43 -7 70 -10
28 -3 68 -9 90 -11 22 -3 66 -7 97 -10 32 -2 62 -6 68 -10 5 -3 10 -1 10 5 0
6 5 8 10 5 18 -11 267 -3 330 10 14 3 45 8 70 10 25 3 56 7 70 11 14 3 39 7
55 8 85 8 453 120 479 146 4 4 15 6 22 3 8 -3 14 0 14 6 0 6 5 11 11 11 12 0
182 80 189 89 3 3 23 15 45 26 22 11 61 35 87 52 26 18 52 33 58 33 5 0 10 4
10 8 0 4 15 16 33 27 17 10 37 23 42 27 6 5 37 29 70 56 92 72 101 80 204 183
100 100 160 167 224 253 21 28 46 60 55 72 20 24 23 28 100 154 48 78 155 281
158 300 0 3 5 16 11 30 6 14 11 28 12 33 0 4 7 20 15 36 9 16 12 31 9 35 -4 3
-2 6 4 6 6 0 14 17 18 38 4 20 11 43 17 50 6 6 8 12 4 12 -3 0 -1 12 5 28 6
15 13 38 15 52 3 14 9 36 14 50 4 14 12 43 16 65 4 22 9 45 10 50 2 6 6 25 9
42 3 18 8 48 11 65 3 18 7 49 9 68 1 19 4 35 5 35 5 0 12 136 12 245 1 118 -6
252 -17 330 -3 19 -8 55 -11 80 -9 69 -11 80 -28 150 -27 119 -36 155 -43 170
-3 8 -7 17 -8 20 -1 3 -8 25 -15 50 -7 25 -14 47 -15 50 -1 3 -7 18 -13 33 -7
16 -12 31 -12 33 0 13 -125 279 -132 282 -4 2 -8 7 -8 12 0 10 -87 156 -124
207 -95 130 -136 183 -181 232 -55 61 -202 207 -231 231 -11 8 -48 39 -83 68
-251 209 -605 385 -937 467 -110 27 -120 29 -184 39 -86 13 -117 18 -140 21
-54 10 -368 24 -374 18z m299 -157 c71 -6 106 -10 160 -20 17 -3 47 -8 69 -12
48 -7 62 -10 105 -23 19 -6 37 -9 39 -6 3 3 10 1 16 -4 6 -6 25 -12 41 -15 17
-2 31 -5 33 -5 1 -1 3 -1 5 -1 4 1 202 -70 222 -79 177 -82 388 -197 405 -221
3 -4 15 -12 27 -19 104 -54 416 -349 503 -475 8 -12 20 -27 27 -34 6 -7 34
-45 60 -85 26 -39 50 -74 53 -77 3 -3 16 -25 29 -50 13 -25 31 -53 39 -62 8
-10 12 -18 7 -18 -4 0 -2 -7 5 -15 12 -14 83 -158 80 -163 0 -1 6 -17 13 -35
31 -70 47 -116 72 -202 14 -49 31 -104 36 -122 5 -17 12 -44 14 -60 2 -15 9
-52 14 -82 6 -30 13 -77 16 -105 3 -28 8 -73 11 -101 8 -66 8 -386 0 -450 -14
-120 -18 -153 -27 -193 -5 -24 -7 -47 -4 -52 3 -5 1 -11 -4 -14 -9 -6 -27 -83
-23 -98 1 -5 -2 -8 -6 -8 -5 0 -9 -6 -10 -12 0 -7 -3 -23 -6 -36 -3 -12 -8
-31 -10 -41 -3 -11 -10 -29 -16 -40 -6 -12 -8 -21 -4 -21 3 0 1 -7 -6 -15 -6
-8 -9 -18 -6 -24 3 -5 3 -11 -1 -13 -5 -1 -19 -30 -32 -63 -31 -81 -143 -305
-152 -305 -4 0 -12 -12 -18 -27 -11 -28 -31 -64 -42 -73 -3 -3 -15 -22 -28
-43 -21 -35 -37 -56 -129 -167 -75 -91 -172 -191 -250 -257 -31 -27 -63 -55
-71 -63 -61 -58 -314 -221 -298 -192 2 4 24 48 48 97 24 50 69 137 101 194 32
57 58 106 58 108 0 3 9 18 21 34 11 16 17 29 13 29 -4 0 0 8 8 18 8 9 22 31
30 47 35 70 73 140 78 145 5 5 9 11 56 100 16 30 31 57 34 60 3 3 19 32 35 65
17 33 32 62 35 65 3 3 15 23 26 45 22 41 73 137 137 257 20 36 33 69 30 72 -4
3 -2 6 4 6 6 0 16 15 24 33 7 17 15 34 18 37 12 10 196 385 194 392 -2 4 2 8
7 8 6 0 10 9 10 20 0 11 5 20 10 20 6 0 10 9 10 20 0 11 4 20 8 20 11 0 35 69
37 105 1 21 -7 37 -26 55 -44 40 -54 47 -69 48 -8 0 -26 3 -40 6 -14 4 -38 9
-54 12 -16 2 -33 7 -36 9 -4 3 -25 8 -46 12 -105 18 -144 1 -189 -82 -14 -27
-34 -63 -44 -80 -20 -35 -124 -231 -154 -290 -11 -22 -24 -43 -29 -46 -5 -3
-10 -10 -10 -15 -1 -10 -31 -77 -38 -84 -13 -13 -40 -70 -40 -84 0 -8 -6 -19
-12 -23 -7 -4 -22 -26 -33 -48 -11 -22 -29 -56 -40 -75 -11 -19 -20 -41 -22
-49 -1 -8 -6 -17 -10 -20 -5 -3 -18 -24 -29 -46 -24 -47 -97 -184 -144 -270
-18 -33 -44 -82 -58 -110 -14 -27 -28 -52 -32 -55 -4 -3 -10 -17 -14 -32 -3
-16 -11 -28 -16 -28 -6 0 -10 -7 -10 -15 0 -8 -4 -15 -10 -15 -5 0 -7 -7 -4
-15 4 -8 2 -15 -4 -15 -5 0 -13 8 -17 17 -4 10 -9 387 -11 838 -2 451 -8 836
-13 855 -8 36 10 78 144 325 122 223 176 341 171 369 -9 43 -50 72 -140 96
-44 13 -100 29 -124 36 -99 32 -124 11 -231 -194 -8 -15 -17 -29 -21 -32 -3
-3 -14 -21 -23 -40 -10 -19 -22 -42 -27 -50 -11 -17 -32 -55 -175 -305 -87
-154 -159 -278 -235 -410 -9 -16 -59 -104 -110 -195 -140 -251 -182 -320 -189
-315 -4 2 -6 25 -5 52 2 63 13 504 29 1188 3 132 8 302 11 377 5 160 -2 186
-66 218 -22 11 -43 19 -47 18 -5 -1 -33 6 -65 15 -31 9 -68 17 -83 17 -27 0
-85 -34 -85 -50 0 -5 -24 -49 -54 -98 -29 -49 -57 -99 -60 -110 -4 -12 -11
-22 -16 -22 -4 0 -15 -17 -24 -37 -9 -21 -43 -83 -76 -138 -33 -55 -69 -119
-81 -142 -13 -24 -26 -43 -31 -43 -4 0 -8 -5 -8 -11 0 -6 -29 -60 -65 -119
-36 -59 -65 -113 -65 -119 0 -6 -4 -11 -9 -11 -5 0 -14 -14 -21 -31 -7 -17
-18 -36 -24 -43 -6 -6 -24 -36 -40 -66 -17 -30 -36 -61 -43 -68 -7 -8 -11 -18
-8 -23 4 -5 2 -9 -4 -9 -5 0 -13 -10 -17 -22 -4 -13 -10 -25 -13 -28 -10 -8
-61 -89 -61 -96 0 -4 -17 -34 -38 -68 -21 -34 -42 -68 -45 -76 -18 -38 -64
-104 -75 -108 -10 -3 -11 20 -7 105 3 59 7 178 10 263 3 85 7 193 10 240 2 47
7 168 10 270 3 102 8 223 10 270 2 47 7 168 10 270 4 102 8 214 9 250 4 99 -7
128 -57 150 -23 10 -66 24 -94 31 -29 7 -53 18 -53 24 0 6 25 26 56 45 30 19
66 42 78 50 62 40 144 87 174 99 17 7 32 17 32 22 0 5 8 9 18 9 10 0 26 6 37
13 21 14 167 72 175 69 3 0 15 6 28 14 12 8 22 12 22 9 0 -3 16 1 35 9 19 8
35 12 35 9 0 -3 7 0 15 7 8 7 15 10 15 7 0 -4 18 0 40 8 22 8 40 12 40 10 0
-3 12 0 26 6 15 5 43 12 63 15 20 3 43 7 51 9 8 2 35 7 60 11 25 3 56 8 70 10
14 3 77 7 140 10 63 3 116 7 117 7 3 4 171 -2 238 -7z m-1800 -833 c-3 -109
-8 -245 -10 -303 -13 -335 -16 -428 -20 -545 -2 -71 -7 -211 -10 -310 -4 -99
-9 -216 -10 -260 -1 -44 -6 -181 -11 -305 -4 -124 -8 -276 -8 -338 -1 -150
-22 -133 274 -217 68 -19 135 -35 148 -35 39 0 73 44 154 198 12 23 26 42 31
42 4 0 6 4 2 9 -3 5 1 15 8 23 7 7 64 103 127 213 120 210 199 342 201 335 0
-3 3 -14 5 -25 5 -20 5 -952 0 -1460 -1 -143 1 -274 6 -291 10 -37 40 -74 60
-74 8 0 19 -5 26 -12 7 -7 12 -9 12 -6 0 4 15 2 33 -3 17 -6 46 -13 62 -16 17
-3 38 -9 48 -14 9 -5 17 -7 17 -4 0 3 8 1 18 -4 9 -5 33 -12 52 -15 19 -3 52
-10 74 -15 72 -17 102 7 175 144 27 49 60 110 73 135 14 25 42 77 63 115 20
39 45 84 55 100 9 17 39 71 65 120 26 50 62 117 80 150 18 33 54 101 80 150
27 50 71 131 98 180 61 111 85 154 91 169 20 48 24 -75 26 -688 0 -369 2 -682
4 -696 2 -14 4 -30 5 -36 3 -30 111 -101 133 -88 4 3 8 1 8 -4 0 -19 -230 -75
-358 -87 -34 -3 -85 -8 -114 -11 -64 -6 -307 -6 -363 0 -57 7 -168 18 -182 19
-7 0 -13 3 -13 6 0 4 -15 7 -32 8 -18 1 -42 4 -53 7 -11 3 -49 12 -85 21 -159
37 -322 97 -475 175 -148 74 -322 181 -338 207 -4 7 -13 13 -19 13 -19 0 -158
122 -273 240 -89 91 -107 112 -188 220 -40 52 -75 97 -78 100 -4 3 -9 15 -13
28 -4 12 -12 22 -17 22 -5 0 -9 7 -9 15 0 8 -3 15 -7 15 -5 0 -13 10 -19 23
-5 12 -31 62 -57 111 -46 86 -112 231 -122 269 -2 4 -4 9 -5 12 -1 3 -3 8 -4
13 -1 4 -13 41 -25 82 -21 67 -26 83 -30 100 0 3 -7 28 -15 55 -31 108 -59
324 -60 467 -1 52 -5 88 -11 88 -7 0 -7 3 0 8 6 4 11 36 11 72 2 94 11 213 17
230 3 8 9 38 13 65 11 78 20 130 24 130 1 0 3 11 5 25 6 32 13 64 15 68 2 1 3
5 4 10 1 4 10 34 21 67 10 33 19 62 20 65 2 9 38 105 53 140 8 19 16 37 17 40
17 59 162 316 225 400 15 19 45 60 68 90 58 78 215 250 228 250 3 0 2 -89 -1
-197z"/>
</g>
</svg>
